# xmcd CD database file
#
# Track frame offsets:
#	150
#	15360
#	25872
#	42275
#	54152
#	88717
#	100337
#	114602
#	129010
#	137390
#	153020
#	165815
#	176517
#	189472
#	200857
#	212500
#	222272
#	236450
#	247692
#	259937
#
# Disc length: 3647 seconds
#
# Revision: 3
# Processed by: cddbd v1.5.2PL0 Copyright (c) Steve Scherf et al.
# Submitted via: CDex 1.51
#
DISCID=f40e3d14
DTITLE=Oscar Peterson Trio - Vol. 190 -  with Ray Brown and Ed Thigpen (1959)
DYEAR=1994
DGENRE=Jazz
TTITLE0=All Of Me
TTITLE1=Come Dance With Me
TTITLE2=Learning The Blues
TTITLE3=You Make Me Feel So Young
TTITLE4=The Maids Of Cadiz (Maidens Of Cadiz)
TTITLE5=The Birth Of The Blues
TTITLE6=Witchcraft
TTITLE7=How About You
TTITLE8=Just In Time
TTITLE9=Love For Sale
TTITLE10=In The Still Of The Night
TTITLE11=Just One Of Those Things
TTITLE12=It's Allright With Me
TTITLE13=Night And Day
TTITLE14=Easy To Love
TTITLE15=I Love Paris
TTITLE16=I Concentrate On You
TTITLE17=It's De-Lovely
TTITLE18=The Tender Trap
TTITLE19=I Get A Kick Out Of You
EXTD=Giants Of Jazz CD 53190 (P) 1994\n\nOscar Peterson: piano\nRay Brown: bass\nEd Thigpen: drums YEAR: 1994
EXTT0=Paris, May18, 1959
EXTT1=Paris, May18, 1959
EXTT2=Paris, May18, 1959
EXTT3=Paris, May18, 1959
EXTT4=Chicago, August, 1959
EXTT5=Paris, May18, 1959
EXTT6=Paris, May18, 1959
EXTT7=Paris, May18, 1959
EXTT8=Paris, May18, 1959
EXTT9=Chicago, July 14 and August 9, 1959
EXTT10=Chicago, July 14 and August 9, 1959
EXTT11=Chicago, July 14 and August 9, 1959
EXTT12=Chicago, July 14 and August 9, 1959
EXTT13=Chicago, July 14 and August 9, 1959
EXTT14=Chicago, July 14 and August 9, 1959
EXTT15=Chicago, July 14 and August 9, 1959
EXTT16=Chicago, July 14 and August 9, 1959
EXTT17=Chicago, July 14 and August 9, 1959
EXTT18=Paris, May18, 1959
EXTT19=Paris, May18, 1959
PLAYORDER=
